<svg height="448pt" viewBox="0 0 448 448" width="448pt" xmlns="http://www.w3.org/2000/svg"><path d="m264 144c0-22.089844-17.910156-40-40-40s-40 17.910156-40 40v24h80zm0 0"/><path d="m176 184h-32v128h160v-128zm0 0"/><path d="m224 0c-123.710938 0-224 100.289062-224 224s100.289062 224 224 224 224-100.289062 224-224c-.140625-123.652344-100.347656-223.859375-224-224zm96 320c0 4.417969-3.582031 8-8 8h-176c-4.417969 0-8-3.582031-8-8v-144c0-4.417969 3.582031-8 8-8h32v-24c0-30.929688 25.070312-56 56-56s56 25.070312 56 56v24h32c4.417969 0 8 3.582031 8 8zm0 0"/></svg>