<?xml version="1.0" encoding="utf-8"?>
<!-- Generator: Adobe Illustrator 24.0.0, SVG Export Plug-In . SVG Version: 6.00 Build 0)  -->
<svg version="1.1" id="Livello_1" xmlns="http://www.w3.org/2000/svg" xmlns:xlink="http://www.w3.org/1999/xlink" x="0px" y="0px"
	 viewBox="0 0 600 600" style="enable-background:new 0 0 600 600;" xml:space="preserve">
<style type="text/css">
	.st0{fill:url(#SVGID_1_);}
</style>
<g>
	<g>
		
			<linearGradient id="SVGID_1_" gradientUnits="userSpaceOnUse" x1="103.0913" y1="298.2407" x2="503.1174" y2="298.2407" gradientTransform="matrix(1 0 0 -1 0 602)">
			<stop  offset="0" style="stop-color:#7BC0EB"/>
			<stop  offset="1" style="stop-color:#FDC73C"/>
		</linearGradient>
		<path class="st0" d="M486.3,341.7l-8.4-5.1l8.4-5.2c22.4-13.7,22.4-37,0-50.7l-8.4-5.1l8.4-5.2c22.5-13.7,22.4-46.3,0-60
			L321.4,109c-11.3-6.9-25.4-6.9-36.7,0c0,0,0,0,0,0L119.9,210.4c-22.5,13.7-22.4,46.3,0,60l8.4,5.2l-8.4,5.1
			c-22.4,13.7-22.5,37,0,50.7l8.4,5.2l-8.4,5.1c-22.5,13.7-22.4,41.7,0,55.4l164.8,101.4c11.2,6.8,25.2,7,36.7,0l164.9-101.4
			C508.7,383.4,508.7,355.5,486.3,341.7z M132.2,230.4L297,129l0,0c3.8-2.3,8.4-2.3,12.2,0l164.9,101.4c7.5,4.6,7.5,15.4,0,20
			c-12.1,7.4-159.5,98.1-164.9,101.4c-3.8,2.3-8.4,2.3-12.2,0c-7.4-4.5-158.2-97.4-164.8-101.4C124.7,245.8,124.6,235,132.2,230.4z
			 M126.5,306.1c0-0.4,1-2.6,5.6-5.4l18.6-11.4l134,82.5c11.2,6.9,25.3,7,36.7,0l134.1-82.4l18.6,11.4c4.6,2.8,5.6,5,5.6,5.4
			c0,0.4-1,2.6-5.6,5.4c-12.1,7.4-159.5,98.1-164.9,101.4c-3.8,2.3-8.4,2.3-12.2,0c-5.3-3.3-152.6-93.9-164.8-101.4
			C127.6,308.6,126.6,306.4,126.5,306.1z M474,377.2L309.2,478.6c-3.8,2.3-8.4,2.3-12.2,0L132.2,377.2c-7.4-4.5-7.4-10.9,0-15.4
			l18.6-11.4l134,82.5c11.2,6.9,25.3,7,36.7,0l134.1-82.4l18.6,11.4c3.6,2.2,5.6,5,5.6,7.7C479.7,372.2,477.6,375,474,377.2z"/>
	</g>
</g>
</svg>
