<?xml version="1.0" encoding="utf-8"?>
<!-- Generator: Adobe Illustrator 24.0.0, SVG Export Plug-In . SVG Version: 6.00 Build 0)  -->
<svg version="1.1" id="Livello_1" xmlns="http://www.w3.org/2000/svg" xmlns:xlink="http://www.w3.org/1999/xlink" x="0px" y="0px"
	 viewBox="0 0 600 600" style="enable-background:new 0 0 600 600;" xml:space="preserve">
<style type="text/css">
	.st0{fill:url(#SVGID_1_);}
	.st1{fill:url(#SVGID_2_);}
</style>
<linearGradient id="SVGID_1_" gradientUnits="userSpaceOnUse" x1="202.1505" y1="401.8841" x2="394.8268" y2="401.8841" gradientTransform="matrix(1 0 0 -1 0 602)">
	<stop  offset="0" style="stop-color:#7BC0EB"/>
	<stop  offset="1" style="stop-color:#FDC73C"/>
</linearGradient>
<path class="st0" d="M298.5,296.4c26.5,0,49.4-9.5,68.1-28.2c18.7-18.7,28.2-41.6,28.2-68.1c0-26.5-9.5-49.4-28.2-68.1
	c-18.7-18.7-41.6-28.2-68.1-28.2s-49.4,9.5-68.1,28.2s-28.2,41.6-28.2,68.1s9.5,49.4,28.2,68.1C249.1,287,272,296.4,298.5,296.4z
	 M247,148.6c14.4-14.4,31.2-21.4,51.5-21.4c20.3,0,37.2,7,51.5,21.4c14.4,14.4,21.4,31.2,21.4,51.5c0,20.3-7,37.2-21.4,51.5
	C335.7,266,318.8,273,298.5,273s-37.2-7-51.5-21.4c-14.4-14.4-21.4-31.2-21.4-51.5C225.6,179.8,232.6,163,247,148.6z"/>
<linearGradient id="SVGID_2_" gradientUnits="userSpaceOnUse" x1="134.1906" y1="201.6333" x2="467.8795" y2="201.6333" gradientTransform="matrix(1 0 0 -1 0 602)">
	<stop  offset="0" style="stop-color:#7BC0EB"/>
	<stop  offset="1" style="stop-color:#FDC73C"/>
</linearGradient>
<path class="st1" d="M467.1,411.3c-0.5-7.8-1.6-16.3-3.2-25.3c-1.6-9-3.7-17.6-6.2-25.4c-2.6-8.1-6.1-16.1-10.4-23.7
	c-4.5-7.9-9.8-14.8-15.7-20.5c-6.2-5.9-13.8-10.7-22.6-14.2c-8.8-3.5-18.5-5.2-28.9-5.2c-4.1,0-8,1.7-15.7,6.6
	c-4.7,3.1-10.2,6.6-16.3,10.5c-5.2,3.3-12.3,6.5-21.1,9.3c-8.6,2.8-17.2,4.2-25.8,4.2c-8.6,0-17.3-1.4-25.8-4.2
	c-8.8-2.8-15.9-6-21.1-9.3c-6.1-3.9-11.6-7.4-16.3-10.5c-7.6-5-11.6-6.6-15.7-6.6c-10.4,0-20.1,1.8-28.9,5.2
	c-8.8,3.5-16.4,8.3-22.6,14.2c-5.9,5.7-11.2,12.6-15.7,20.5c-4.3,7.6-7.9,15.6-10.4,23.7c-2.5,7.8-4.6,16.4-6.2,25.4
	c-1.6,9-2.7,17.5-3.2,25.3c-0.5,7.6-0.8,15.6-0.8,23.6c0,20.9,6.6,37.8,19.7,50.2c12.9,12.3,30,18.5,50.8,18.5h192.6
	c20.8,0,37.9-6.2,50.8-18.5c13.1-12.5,19.7-29.4,19.7-50.2C467.9,426.9,467.6,419,467.1,411.3z M432,468.2
	c-8.5,8.1-19.9,12.1-34.7,12.1H204.7c-14.8,0-26.1-4-34.7-12.1c-8.4-8-12.4-18.9-12.4-33.3c0-7.5,0.2-14.9,0.7-22
	c0.5-7,1.5-14.6,2.9-22.8c1.4-8,3.3-15.6,5.5-22.4c2.1-6.5,5-13,8.5-19.3c3.4-5.9,7.3-11.1,11.6-15.2c4-3.9,9.1-7,15.1-9.4
	c5.5-2.2,11.7-3.4,18.5-3.6c0.8,0.4,2.3,1.3,4.6,2.8c4.8,3.1,10.4,6.7,16.5,10.6c6.9,4.4,15.8,8.4,26.5,11.8c10.9,3.5,22,5.3,33,5.3
	s22.1-1.8,33-5.3c10.7-3.4,19.6-7.4,26.5-11.8c6.3-4,11.7-7.5,16.5-10.6c2.4-1.5,3.8-2.4,4.6-2.8c6.7,0.2,12.9,1.4,18.5,3.6
	c6,2.4,11,5.5,15.1,9.4c4.3,4.1,8.2,9.2,11.6,15.2c3.5,6.2,6.4,12.7,8.5,19.3c2.2,6.8,4,14.4,5.5,22.4c1.5,8.1,2.4,15.8,2.9,22.8v0
	c0.5,7.1,0.7,14.5,0.7,22C444.4,449.4,440.4,460.3,432,468.2z"/>
</svg>
