<?xml version="1.0" encoding="utf-8"?>
<!-- Generator: Adobe Illustrator 24.0.0, SVG Export Plug-In . SVG Version: 6.00 Build 0)  -->
<svg version="1.1" id="Livello_1" xmlns="http://www.w3.org/2000/svg" xmlns:xlink="http://www.w3.org/1999/xlink" x="0px" y="0px"
	 viewBox="0 0 600 600" style="enable-background:new 0 0 600 600;" xml:space="preserve">
<style type="text/css">
	.st0{fill:url(#SVGID_1_);}
	.st1{fill:url(#SVGID_2_);}
	.st2{fill:url(#SVGID_3_);}
	.st3{fill:url(#SVGID_4_);}
	.st4{fill:url(#SVGID_5_);}
	.st5{fill:url(#SVGID_6_);}
</style>
<linearGradient id="SVGID_1_" gradientUnits="userSpaceOnUse" x1="199.0368" y1="937.0968" x2="482.3317" y2="937.0968" gradientTransform="matrix(1 0 0 1 0 -600)">
	<stop  offset="0" style="stop-color:#7BC0EB"/>
	<stop  offset="1" style="stop-color:#FDC73C"/>
</linearGradient>
<path class="st0" d="M440.6,503.7H240.7c-22.9,0-41.7-18.7-41.7-41.7V212.1c0-23,18.7-41.7,41.7-41.7h199.9
	c22.9,0,41.7,18.7,41.7,41.7v249.9C482.2,485.1,463.6,503.7,440.6,503.7z M240.7,187.2c-13.8,0-25,11.3-25,25v249.9
	c0,13.8,11.3,25,25,25h199.9c13.8,0,25-11.3,25-25V212.1c0-13.8-11.3-25-25-25H240.7L240.7,187.2z"/>
<linearGradient id="SVGID_2_" gradientUnits="userSpaceOnUse" x1="115.6684" y1="878.7685" x2="398.9632" y2="878.7685" gradientTransform="matrix(1 0 0 1 0 -600)">
	<stop  offset="0" style="stop-color:#7BC0EB"/>
	<stop  offset="1" style="stop-color:#FDC73C"/>
</linearGradient>
<path class="st1" d="M174,453.8h-16.7c-22.9,0-41.7-18.7-41.7-41.7V145.5c0-23,18.7-41.7,41.7-41.7h199.9
	c22.9,0,41.7,18.7,41.7,41.7c0,4.6-3.8,8.3-8.3,8.3c-4.6,0-8.3-3.8-8.3-8.3c0-13.8-11.3-25-25-25h-200c-13.8,0-25,11.3-25,25v266.6
	c0,13.8,11.3,25,25,25H174c4.6,0,8.3,3.8,8.3,8.3C182.3,450,178.7,453.8,174,453.8z"/>
<linearGradient id="SVGID_3_" gradientUnits="userSpaceOnUse" x1="265.3" y1="981.8" x2="417.0019" y2="981.8" gradientTransform="matrix(1 0 0 1 0 -600)">
	<stop  offset="0" style="stop-color:#7BC0EB"/>
	<stop  offset="1" style="stop-color:#FDC73C"/>
</linearGradient>
<path class="st2" d="M408.6,390.2H273.7c-4.7,0-8.4-3.8-8.4-8.4c0-4.7,3.8-8.4,8.4-8.4h134.9c4.7,0,8.4,3.8,8.4,8.4
	C417.1,386.4,413.3,390.2,408.6,390.2z"/>
<linearGradient id="SVGID_4_" gradientUnits="userSpaceOnUse" x1="265.3" y1="1049.3" x2="417.0019" y2="1049.3" gradientTransform="matrix(1 0 0 1 0 -600)">
	<stop  offset="0" style="stop-color:#7BC0EB"/>
	<stop  offset="1" style="stop-color:#FDC73C"/>
</linearGradient>
<path class="st3" d="M408.6,457.7H273.7c-4.7,0-8.4-3.8-8.4-8.4c0-4.7,3.8-8.4,8.4-8.4h134.9c4.7,0,8.4,3.8,8.4,8.4
	C417.1,453.9,413.3,457.7,408.6,457.7z"/>
<linearGradient id="SVGID_5_" gradientUnits="userSpaceOnUse" x1="265.3" y1="914.3" x2="417" y2="914.3" gradientTransform="matrix(1 0 0 1 0 -600)">
	<stop  offset="0" style="stop-color:#7BC0EB"/>
	<stop  offset="1" style="stop-color:#FDC73C"/>
</linearGradient>
<path class="st4" d="M408.6,322.7H273.7c-4.7,0-8.4-3.8-8.4-8.4s3.8-8.4,8.4-8.4h134.9c4.7,0,8.4,3.8,8.4,8.4
	S413.3,322.7,408.6,322.7z"/>
<linearGradient id="SVGID_6_" gradientUnits="userSpaceOnUse" x1="265.3" y1="846.9" x2="417.0019" y2="846.9" gradientTransform="matrix(1 0 0 1 0 -600)">
	<stop  offset="0" style="stop-color:#7BC0EB"/>
	<stop  offset="1" style="stop-color:#FDC73C"/>
</linearGradient>
<path class="st5" d="M408.6,255.3H273.7c-4.7,0-8.4-3.8-8.4-8.4c0-4.7,3.8-8.4,8.4-8.4h134.9c4.7,0,8.4,3.8,8.4,8.4
	C417.1,251.5,413.3,255.3,408.6,255.3z"/>
</svg>
