<?xml version="1.0" encoding="utf-8"?>
<!-- Generator: Adobe Illustrator 24.0.0, SVG Export Plug-In . SVG Version: 6.00 Build 0)  -->
<svg version="1.1" id="Livello_1" xmlns="http://www.w3.org/2000/svg" xmlns:xlink="http://www.w3.org/1999/xlink" x="0px" y="0px"
	 viewBox="0 0 600 600" style="enable-background:new 0 0 600 600;" xml:space="preserve">
<style type="text/css">
	.st0{fill:none;stroke:url(#SVGID_1_);stroke-width:10;stroke-miterlimit:10;}
	.st1{fill:none;stroke:url(#SVGID_2_);stroke-width:10;stroke-miterlimit:10;}
</style>
<linearGradient id="SVGID_1_" gradientUnits="userSpaceOnUse" x1="94.9588" y1="1079.6257" x2="503.0412" y2="1079.6257" gradientTransform="matrix(1 0 0 1 0 -600)">
	<stop  offset="0" style="stop-color:#73C3F9"/>
	<stop  offset="1" style="stop-color:#FFC839"/>
</linearGradient>
<path class="st0" d="M498,479.6c0,13.3-10.7,24.1-24.1,24.1H124.1c-13.3,0-24.1-10.7-24.1-24.1s10.7-24.1,24.1-24.1h349.9
	C487.2,455.5,498,466.4,498,479.6z"/>
<linearGradient id="SVGID_2_" gradientUnits="userSpaceOnUse" x1="180.5792" y1="854.6998" x2="420.1775" y2="854.6998" gradientTransform="matrix(1 0 0 1 0 -600)">
	<stop  offset="0" style="stop-color:#73C3F9"/>
	<stop  offset="1" style="stop-color:#FFC839"/>
</linearGradient>
<path class="st1" d="M408.1,308.6c-22.1,21.7-89,86.2-89,86.2l0,0c-4.3,6.5-11.7,10.8-20.1,10.8s-15.8-4.3-20.1-10.8h-0.1
	l-86.2-86.2c-9.4-9.4-9.4-24.7,0-34.1s24.7-9.4,34.1,0l48.1,48.2c0,0,0-146.2,0-194.8c0-13.3,10.7-24.1,24.1-24.1
	s24.1,10.7,24.1,24.1c0,48.7,0,194.8,0,194.8s38.3-36.1,50.9-48.2c9.5-9.3,24.7-9.4,34.1,0C417.5,283.9,417.6,299.3,408.1,308.6z"/>
</svg>
