<?xml version="1.0" encoding="utf-8"?>
<!-- Generator: Adobe Illustrator 24.0.0, SVG Export Plug-In . SVG Version: 6.00 Build 0)  -->
<svg version="1.1" id="Livello_1" xmlns="http://www.w3.org/2000/svg" xmlns:xlink="http://www.w3.org/1999/xlink" x="0px" y="0px"
	 viewBox="0 0 600 600" style="enable-background:new 0 0 600 600;" xml:space="preserve">
<style type="text/css">
	.st0{fill:url(#SVGID_1_);}
	.st1{fill:url(#SVGID_2_);}
	.st2{fill:url(#SVGID_3_);}
	.st3{fill:url(#SVGID_4_);}
	.st4{fill:url(#SVGID_5_);}
</style>
<g>
	<linearGradient id="SVGID_1_" gradientUnits="userSpaceOnUse" x1="431.9731" y1="506.802" x2="335.5129" y2="151.0498">
		<stop  offset="0" style="stop-color:#7BC0EB"/>
		<stop  offset="1" style="stop-color:#FDC73C"/>
	</linearGradient>
	<path class="st0" d="M500.5,122.61c-0.46-4.13-3.72-7.39-7.85-7.85c-70.3-7.81-130.23,20.31-179.12,70.64
		c-13.99,14.4-26.12,29.65-36.48,44.36c-17.53-0.71-36.97,7.22-50.74,21l-25.13,25.13c-2.84,2.84-3.42,7.24-1.41,10.73
		s6.11,5.18,9.99,4.14c5.83-1.57,15.3-3.39,24.41-3.81c3.33-0.15,6.09-0.11,8.39,0.07c-5.55,10.67-9.8,19.6-11.2,21.84
		c-2.21,3.51-1.7,8.08,1.24,11.01l14.54,14.54c-21.16,28.86-21.51,43.64-21.44,45.74c0.15,4.43,3.61,8.59,9.34,8.59
		c4.96,0,19.19-2.11,45.08-21.34l15.29,15.29c2.95,2.95,7.57,3.45,11.09,1.19c2.39-1.54,10.8-5.61,20.89-10.88
		c0.17,7.52-0.85,18.55-3.07,33.52c-1.26,8.49,9.06,13.59,15.07,7.58l25.13-25.13c12.96-12.96,20.47-32.2,19.92-50.26
		c15.5-10.83,31.62-23.6,46.67-38.37C480.95,251.46,508.21,191.98,500.5,122.61z M483.5,131.75c1.42,19.16-0.09,37.72-4.5,55.69
		c-10.95-3.45-21.65-10.22-31.31-19.88c-9.7-9.7-16.48-20.44-19.92-31.43C445.74,131.79,464.32,130.32,483.5,131.75z M233.01,269.18
		l5.86-5.86c7.09-7.09,16.31-12.19,25.48-14.49c-4.79,7.6-9.06,14.87-12.83,21.57C245.71,269.11,239.24,268.87,233.01,269.18z
		 M249.82,311.96c1.92-3.79,4.25-8.55,8.52-16.62l11.69,11.7c-4.35,4.67-8.28,9.1-11.82,13.31L249.82,311.96z M293.27,308.56
		c6.47-6.47,12.68-7.65,20.39-7.82c-0.17,7.51-1.37,13.93-7.83,20.38c-27.58,27.58-46.49,39.9-57.79,45.4
		C253.61,355,265.96,335.86,293.27,308.56z M303.26,365.39l-9.16-9.16c4.18-3.55,8.6-7.49,13.27-11.86l12.45,12.45
		C311.63,361.19,308.21,362.83,303.26,365.39z M351.95,376.39l-7.11,7.11c0.58-8.62,0.38-14.9-0.44-19.74
		c6.53-3.68,13.63-7.85,21.06-12.52C363.35,360.64,358.58,369.76,351.95,376.39z M335.99,347.87l-15.93-15.93
		c11.79-12.97,11.35-25.47,11.35-40.07c0-4.91-3.98-8.88-8.88-8.88c-13.64,0-26.77-0.73-40.07,11.35l-15.21-15.21
		c41.54-72.84,89.55-118.95,143.49-137.94c4.27,13.82,12.58,27.13,24.4,38.95c11.76,11.76,25.01,20.05,38.77,24.34
		C454.8,258.12,408.7,306.1,335.99,347.87z"/>
	<linearGradient id="SVGID_2_" gradientUnits="userSpaceOnUse" x1="465.3528" y1="497.7513" x2="368.8926" y2="141.9991">
		<stop  offset="0" style="stop-color:#7BC0EB"/>
		<stop  offset="1" style="stop-color:#FDC73C"/>
	</linearGradient>
	<path class="st1" d="M422.57,192.69c-17.32-17.32-45.5-17.32-62.82,0c-17.32,17.32-17.32,45.5,0,62.82
		c17.32,17.32,45.5,17.32,62.82,0C439.89,238.2,439.89,210.01,422.57,192.69z M410,242.95c-10.39,10.39-27.3,10.39-37.69,0
		c-10.39-10.39-10.39-27.3,0-37.69c10.39-10.39,27.3-10.39,37.69,0C420.39,215.65,420.39,232.56,410,242.95z"/>
	<linearGradient id="SVGID_3_" gradientUnits="userSpaceOnUse" x1="189.1752" y1="572.6353" x2="92.715" y2="216.8831">
		<stop  offset="0" style="stop-color:#7BC0EB"/>
		<stop  offset="1" style="stop-color:#FDC73C"/>
	</linearGradient>
	<path class="st2" d="M113.51,423.37c3.84,0,7.68-1.46,10.61-4.39l48.97-48.97c5.86-5.86,5.86-15.35,0-21.21
		c-5.86-5.86-15.35-5.86-21.21,0l-48.97,48.97c-5.86,5.86-5.86,15.35,0,21.21C105.83,421.91,109.67,423.37,113.51,423.37z"/>
	<linearGradient id="SVGID_4_" gradientUnits="userSpaceOnUse" x1="192.8968" y1="571.6262" x2="96.4367" y2="215.8739">
		<stop  offset="0" style="stop-color:#7BC0EB"/>
		<stop  offset="1" style="stop-color:#FDC73C"/>
	</linearGradient>
	<path class="st3" d="M217.97,393.67c-5.86-5.86-15.35-5.86-21.21,0l-94.15,94.15c-5.86,5.86-5.86,15.35,0,21.21
		c2.93,2.93,6.77,4.39,10.61,4.39c3.84,0,7.68-1.46,10.61-4.39l94.15-94.15C223.83,409.03,223.83,399.53,217.97,393.67
		L217.97,393.67z"/>
	<linearGradient id="SVGID_5_" gradientUnits="userSpaceOnUse" x1="250.1173" y1="556.1111" x2="153.6571" y2="200.3589">
		<stop  offset="0" style="stop-color:#7BC0EB"/>
		<stop  offset="1" style="stop-color:#FDC73C"/>
	</linearGradient>
	<path class="st4" d="M241.64,438.55l-48.97,48.97c-5.86,5.86-5.86,15.35,0,21.21c2.93,2.93,6.77,4.39,10.61,4.39
		c3.84,0,7.68-1.46,10.61-4.39l48.97-48.97c5.86-5.86,5.86-15.35,0-21.21C256.99,432.7,247.49,432.7,241.64,438.55L241.64,438.55z"
		/>
</g>
</svg>
