<?xml version="1.0" encoding="utf-8"?>
<!-- Generator: Adobe Illustrator 24.0.0, SVG Export Plug-In . SVG Version: 6.00 Build 0)  -->
<svg version="1.1" id="Livello_1" xmlns="http://www.w3.org/2000/svg" xmlns:xlink="http://www.w3.org/1999/xlink" x="0px" y="0px"
	 viewBox="0 0 600 600" style="enable-background:new 0 0 600 600;" xml:space="preserve">
<style type="text/css">
	.st0{fill:url(#SVGID_1_);}
	.st1{fill:url(#SVGID_2_);}
</style>
<g>
	<g>
		
			<linearGradient id="SVGID_1_" gradientUnits="userSpaceOnUse" x1="243.2074" y1="356.4998" x2="543.1" y2="356.4998" gradientTransform="matrix(1 0 0 -1 0 602)">
			<stop  offset="0" style="stop-color:#73C3F9"/>
			<stop  offset="1" style="stop-color:#FFC839"/>
		</linearGradient>
		<path class="st0" d="M516.4,123.1C499.3,106,476.1,96.4,452,96.4l0,0c-24.2-0.1-47.4,9.5-64.4,26.7L269.9,240.7
			c-23.3,23.3-32.2,57.4-23.3,89.1c2.6,9.2,12.2,14.6,21.4,12s14.6-12.2,12-21.4c-5.5-19.6,0-40.7,14.4-55.1l117.7-117.6
			c22-22,57.7-22,79.7,0s22,57.7,0,79.7L374.2,345c-7.7,7.7-17.5,13-28.2,15.3c-9.4,2-15.4,11.2-13.5,20.5
			c1.7,8.1,8.8,13.9,17.1,13.8c1.2,0,2.4-0.1,3.6-0.4c17.3-3.6,33.1-12.2,45.5-24.7l117.7-117.6C552,216.3,552,158.7,516.4,123.1z"
			/>
	</g>
</g>
<g>
	<g>
		
			<linearGradient id="SVGID_2_" gradientUnits="userSpaceOnUse" x1="57.0974" y1="254.9359" x2="356.3943" y2="254.9359" gradientTransform="matrix(1 0 0 -1 0 602)">
			<stop  offset="0" style="stop-color:#73C3F9"/>
			<stop  offset="1" style="stop-color:#FFC839"/>
		</linearGradient>
		<path class="st1" d="M353,263.1c-2.6-9.2-12.2-14.6-21.4-12s-14.6,12.2-12,21.4c5.5,19.6,0,40.7-14.4,55.1L187.5,445.2
			c-22,22-57.7,22-79.7,0s-22-57.7,0-79.7l117.7-117.7c7.7-7.7,17.5-13,28.1-15.3c9.4-1.9,15.5-11,13.6-20.4
			c-1.9-9.4-11-15.5-20.4-13.6c-0.1,0-0.2,0-0.3,0.1c-17.3,3.6-33.1,12.2-45.6,24.7L83.3,341c-35.3,35.8-34.9,93.5,1,128.8
			c35.5,34.9,92.4,34.9,127.8,0l117.7-117.7C353,328.8,361.9,294.8,353,263.1z"/>
	</g>
</g>
</svg>
