<?xml version="1.0" encoding="utf-8"?>
<!-- Generator: Adobe Illustrator 24.0.0, SVG Export Plug-In . SVG Version: 6.00 Build 0)  -->
<svg version="1.1" id="Livello_1" xmlns="http://www.w3.org/2000/svg" xmlns:xlink="http://www.w3.org/1999/xlink" x="0px" y="0px"
	 viewBox="0 0 750 600" style="enable-background:new 0 0 750 600;" xml:space="preserve">
<style type="text/css">
	.st0{fill:url(#SVGID_1_);}
	.st1{fill:url(#SVGID_2_);}
	.st2{fill:url(#SVGID_3_);}
</style>
<linearGradient id="SVGID_1_" gradientUnits="userSpaceOnUse" x1="3.025" y1="303.5" x2="210.9" y2="303.5" gradientTransform="matrix(1 0 0 -1 0 604)">
	<stop  offset="0" style="stop-color:#7CBFEA"/>
	<stop  offset="1" style="stop-color:#FDC73D"/>
</linearGradient>
<path class="st0" d="M167.1,123.6l-155,155C0,290.7,0,310.3,12.1,322.4l0,0l155,155l43.8-43.8l-133.1-133l133-133L167.1,123.6z"/>
<linearGradient id="SVGID_2_" gradientUnits="userSpaceOnUse" x1="539.1" y1="303.5" x2="746.975" y2="303.5" gradientTransform="matrix(1 0 0 -1 0 604)">
	<stop  offset="0" style="stop-color:#7CBFEA"/>
	<stop  offset="1" style="stop-color:#FDC73D"/>
</linearGradient>
<path class="st1" d="M737.9,278.6l-155-155l-43.8,43.9l133,133l-133,133.1l43.8,43.8l155-155C750,310.3,750,290.7,737.9,278.6
	L737.9,278.6z"/>
<linearGradient id="SVGID_3_" gradientUnits="userSpaceOnUse" x1="254.3" y1="303.5" x2="495.7" y2="303.5" gradientTransform="matrix(1 0 0 -1 0 604)">
	<stop  offset="0" style="stop-color:#7CBFEA"/>
	<stop  offset="1" style="stop-color:#FDC73D"/>
</linearGradient>
<polygon class="st2" points="254.3,472.6 440.3,100.7 495.7,128.4 309.8,500.3 "/>
</svg>
