<?xml version="1.0" encoding="utf-8"?>
<!-- Generator: Adobe Illustrator 24.0.0, SVG Export Plug-In . SVG Version: 6.00 Build 0)  -->
<svg version="1.1" id="Livello_1" xmlns="http://www.w3.org/2000/svg" xmlns:xlink="http://www.w3.org/1999/xlink" x="0px" y="0px"
	 viewBox="0 0 600 600" style="enable-background:new 0 0 600 600;" xml:space="preserve">
<style type="text/css">
	.st0{fill:url(#SVGID_1_);}
	.st1{fill:url(#SVGID_2_);}
	.st2{fill:url(#SVGID_3_);}
</style>
<g>
	<g>
		<g>
			<linearGradient id="SVGID_1_" gradientUnits="userSpaceOnUse" x1="20.1166" y1="299.2078" x2="580.8834" y2="299.2078">
				<stop  offset="0" style="stop-color:#7BC0EB"/>
				<stop  offset="1" style="stop-color:#FDC73C"/>
			</linearGradient>
			<path class="st0" d="M20.1,276.8c0,39.6,7.6,75.3,22.5,105.8c14.2,29.1,35.2,53.8,62.2,73.4c48,34.7,115.6,53,195.6,53
				c22.4,0,44-1.4,64.5-4.3c46.4,46.5,103.4,49.2,115.8,49.2c0.1,0,0.2,0,0.3,0h0.1l39.4-0.1l-20.8-33.4c-0.1-0.2-12.2-20-21.5-52.8
				c67.2-39.5,102.5-105,102.5-190.8c0-39.6-7.6-75.3-22.5-105.8c-14.2-29.1-35.2-53.8-62.2-73.4c-48-34.7-115.6-53-195.6-53
				s-147.6,18.3-195.6,53c-27.1,19.5-48,44.2-62.2,73.4C27.7,201.5,20.1,237.1,20.1,276.8z M63.9,276.8
				c0-63.4,22.4-111.8,66.6-143.7c40.4-29.2,99.2-44.7,169.9-44.7S430,103.8,470.4,133c44.2,31.9,66.6,80.3,66.6,143.7
				c0,75.4-31.6,129.3-93.8,160l-15.4,7.6l3.7,16.8c3.6,16.3,8.1,30.6,12.5,42.5c-17-5.7-37-16.5-54.4-36.6l-8.1-9.4l-12.2,2.1
				c-21.4,3.6-44.6,5.5-68.9,5.5c-70.7,0-129.5-15.4-169.9-44.7C86.3,388.5,63.9,340.2,63.9,276.8z"/>
			<linearGradient id="SVGID_2_" gradientUnits="userSpaceOnUse" x1="278.5951" y1="399.4224" x2="322.4049" y2="399.4224">
				<stop  offset="0" style="stop-color:#7BC0EB"/>
				<stop  offset="1" style="stop-color:#FDC73C"/>
			</linearGradient>
			<rect x="278.6" y="377.5" class="st1" width="43.8" height="43.8"/>
			<linearGradient id="SVGID_3_" gradientUnits="userSpaceOnUse" x1="211.7849" y1="239.5184" x2="387.0161" y2="239.5184">
				<stop  offset="0" style="stop-color:#7BC0EB"/>
				<stop  offset="1" style="stop-color:#FDC73C"/>
			</linearGradient>
			<path class="st2" d="M309.3,134.9c-25.2-2.8-50.3,5.2-68.8,21.8c-18.2,16.3-28.7,39.7-28.7,64.1h43.8c0-12.2,5-23.4,14.1-31.5
				c9.4-8.5,21.8-12.3,34.8-10.9c20.1,2.2,36.2,18.2,38.4,38c1.8,16-5.4,31.5-18.6,40.6c-29.3,20.1-46.8,52.8-46.8,87.6h43.8
				c0-20.3,10.4-39.5,27.8-51.4c26.6-18.2,41-49.5,37.4-81.6C382,171.6,349.5,139.3,309.3,134.9z"/>
		</g>
	</g>
</g>
</svg>
